<svg width="146.3" height="40.375"><style/><path d="M71.874 18.661c0-.708.58-1.288 1.256-1.288h7.18c5.087 0 8.436 2.704 8.436 7.146v.064c0 4.861-4.057 7.373-8.854 7.373h-5.475v6.825c0 .708-.58 1.288-1.288 1.288-.676 0-1.256-.58-1.256-1.288v-20.12zm8.114 10.98c3.734 0 6.182-1.996 6.182-4.959v-.063c0-3.22-2.414-4.894-6.053-4.894h-5.699v9.917h5.57v-.001zM93.603 18.5c0-.708.579-1.288 1.255-1.288.709 0 1.288.58 1.288 1.288v20.283a1.29 1.29 0 01-1.288 1.287c-.676 0-1.255-.579-1.255-1.287V18.5zm9.141.032c0-.676.58-1.256 1.256-1.256h.354c.58 0 .935.29 1.288.74l13.684 17.45V18.468c0-.676.547-1.256 1.256-1.256.676 0 1.224.58 1.224 1.256v20.349c0 .676-.481 1.19-1.158 1.19h-.129c-.548 0-.935-.321-1.319-.772l-13.975-17.868v17.45c0 .676-.547 1.256-1.256 1.256-.676 0-1.223-.58-1.223-1.256V18.532h-.002zm25.429-.032c0-.708.58-1.288 1.257-1.288.708 0 1.286.58 1.286 1.288v12.331l12.848-13.168c.29-.257.579-.451.998-.451.676 0 1.225.612 1.225 1.256 0 .354-.162.644-.42.901l-7.984 7.92 8.564 10.561c.225.291.354.547.354.935 0 .676-.578 1.288-1.286 1.288-.483 0-.806-.258-1.03-.58l-8.402-10.463-4.863 4.861v4.894a1.29 1.29 0 01-1.286 1.288c-.677 0-1.257-.58-1.257-1.288V18.5h-.004z" fill="#FFF"/><path fill="#D22856" d="M98.498 9.875a3.623 3.623 0 01-3.623-3.624 3.625 3.625 0 01-3.625 3.624 3.625 3.625 0 013.625 3.624 3.623 3.623 0 013.623-3.624zm-47.812 6.25a4.499 4.499 0 01-4.499-4.499 4.499 4.499 0 01-4.499 4.499 4.499 4.499 0 014.499 4.499 4.498 4.498 0 014.499-4.499zm-12.782 3.501a2.748 2.748 0 01-2.749-2.749 2.748 2.748 0 01-2.749 2.749 2.747 2.747 0 012.749 2.749 2.748 2.748 0 012.749-2.749zm-27.17 14.446a2.748 2.748 0 01-2.749-2.75c0 1.52-1.23 2.75-2.749 2.75a2.747 2.747 0 012.749 2.748 2.748 2.748 0 012.749-2.748z"/></svg>